<svg xmlns="http://www.w3.org/2000/svg" width="1200" height="360" viewBox="0 0 1200 360" role="img" aria-labelledby="title desc">
  <title id="title">Skunkworks AZ-400 DevOps Accelerator</title>
  <desc id="desc">Course banner with gradient and CI/CD iconography</desc>
  <defs>
    <linearGradient id="g" x1="0" x2="1">
      <stop offset="0%" stop-color="#0ea5e9"/>
      <stop offset="100%" stop-color="#111827"/>
    </linearGradient>
  </defs>
  <rect width="1200" height="360" fill="url(#g)"/>
  <g fill="#fff" opacity="0.08">
    <circle cx="80" cy="300" r="120"/>
    <circle cx="1140" cy="60" r="80"/>
    <path d="M100 120h200v40H100zM100 180h260v20H100zM100 220h170v20H100z" />
  </g>
  <g fill="#fff">
    <text x="80" y="140" font-family="Segoe UI, Roboto, Arial" font-size="44" font-weight="700">Skunkworks AZ‑400</text>
    <text x="80" y="190" font-family="Segoe UI, Roboto, Arial" font-size="28" opacity="0.95">DevOps Accelerator — Azure DevOps · GitHub Actions · CI/CD</text>
  </g>
  <g transform="translate(930,120)">
    <circle cx="60" cy="60" r="58" fill="#0ea5e9" opacity="0.2"/>
    <path fill="#fff" d="M30 60a30 30 0 1 0 60 0a30 30 0 1 0 -60 0zm12-2h36v4H42v18h-4V58z"/>
  </g>
</svg>
